<!-- Generated by IcoMoon.io -->
<svg version="1.1" xmlns="http://www.w3.org/2000/svg" width="512" height="512" viewBox="0 0 512 512">
<title></title>
<g id="icomoon-ignore">
</g>
<path fill="#000" d="M431.968 224.048c0-79.392-64.592-144-144-143.984v-0.064c-4.4-0.016-7.968-3.6-7.968-8 0-4.416 3.568-8 8-8 0.16 0 0.288 0.064 0.4 0.096 88.128 0.208 159.472 71.632 159.568 159.776 0 0.048 0.032 0.080 0.032 0.128 0 4.416-3.6 7.984-8 7.984s-7.968-3.552-8-7.936h-0.032zM145.936 14.048c-9.168-9.184-21.456-14.048-33.952-14.048-6.176 0-12.4 1.184-18.336 3.648-17.952 7.424-29.648 24.928-29.648 44.352l-0.016 220.112-49.92 49.952c-18.752 18.72-18.752 49.12 0 67.872l112 112c9.376 9.376 21.648 14.064 33.936 14.064s24.56-4.688 33.936-14.064l49.936-49.936h220.096c19.44 0 36.944-11.68 44.336-29.632 7.44-17.936 3.344-38.592-10.4-52.32l-351.968-352zM221.248 425.376l-49.936 49.936c-4.080 4.064-8.848 4.688-11.312 4.688s-7.232-0.624-11.312-4.688l-112-112c-4.080-4.096-4.688-8.848-4.688-11.312s0.608-7.248 4.688-11.312l49.92-49.936c0.144-0.16 0.192-0.336 0.336-0.496l134.8 134.816c-0.144 0.112-0.352 0.144-0.496 0.304zM243.872 416c-2.48 0-4.784 0.88-7.152 1.408l-142.16-142.16c0.544-2.368 1.424-4.672 1.424-7.136l0.016-192.736 340.592 340.624h-192.72zM478.752 406.128c-2.464 6-8.288 9.872-14.784 9.872h-4.752l-363.216-363.248v-4.752c0-6.496 3.872-12.304 9.872-14.784 1.968-0.816 4.016-1.216 6.112-1.216 4.288 0 8.304 1.664 11.312 4.672l351.984 352.016c4.592 4.592 5.968 11.44 3.472 17.44zM287.968 32c-8.816-0.016-15.968-7.184-15.968-16 0-8.848 7.152-16 16-16 0.16 0 0.288 0.064 0.4 0.080 123.472 0.224 223.472 100.304 223.568 223.792 0 0.048 0.032 0.080 0.032 0.128 0 8.848-7.152 16-16 16-8.816 0-15.968-7.136-16-15.936h-0.032c0-105.872-86.128-192-192-192v-0.064z"></path>
</svg>
